<svg width="20" height="25" viewBox="0 0 20 25" fill="none" xmlns="http://www.w3.org/2000/svg">
<g filter="url(#filter0_d_6_457)">
<path d="M9.99996 10.6667C9.30551 10.6667 8.71524 10.4236 8.22913 9.9375C7.74301 9.45139 7.49996 8.86111 7.49996 8.16667V3.16667C7.49996 2.47222 7.74301 1.88195 8.22913 1.39583C8.71524 0.909723 9.30551 0.666668 9.99996 0.666668C10.6944 0.666668 11.2847 0.909723 11.7708 1.39583C12.2569 1.88195 12.5 2.47222 12.5 3.16667V8.16667C12.5 8.86111 12.2569 9.45139 11.7708 9.9375C11.2847 10.4236 10.6944 10.6667 9.99996 10.6667ZM9.16663 16.5V13.9375C7.72218 13.7431 6.52774 13.0972 5.58329 12C4.63885 10.9028 4.16663 9.625 4.16663 8.16667H5.83329C5.83329 9.31945 6.23954 10.3021 7.05204 11.1146C7.86454 11.9271 8.84718 12.3333 9.99996 12.3333C11.1527 12.3333 12.1354 11.9271 12.9479 11.1146C13.7604 10.3021 14.1666 9.31945 14.1666 8.16667H15.8333C15.8333 9.625 15.3611 10.9028 14.4166 12C13.4722 13.0972 12.2777 13.7431 10.8333 13.9375V16.5H9.16663Z" fill="white"/>
</g>
<defs>
<filter id="filter0_d_6_457" x="0.166626" y="0.666668" width="19.6666" height="23.8333" filterUnits="userSpaceOnUse" color-interpolation-filters="sRGB">
<feFlood flood-opacity="0" result="BackgroundImageFix"/>
<feColorMatrix in="SourceAlpha" type="matrix" values="0 0 0 0 0 0 0 0 0 0 0 0 0 0 0 0 0 0 127 0" result="hardAlpha"/>
<feOffset dy="4"/>
<feGaussianBlur stdDeviation="2"/>
<feComposite in2="hardAlpha" operator="out"/>
<feColorMatrix type="matrix" values="0 0 0 0 0 0 0 0 0 0 0 0 0 0 0 0 0 0 0.25 0"/>
<feBlend mode="normal" in2="BackgroundImageFix" result="effect1_dropShadow_6_457"/>
<feBlend mode="normal" in="SourceGraphic" in2="effect1_dropShadow_6_457" result="shape"/>
</filter>
</defs>
</svg>
